<svg width="146" height="146" viewBox="0 0 146 146" fill="none" xmlns="http://www.w3.org/2000/svg">
<path d="M67.6574 28.867V13.4515C67.6519 11.2468 65.866 9.46083 63.6612 9.45532H12.6102C10.4055 9.46083 8.61952 11.2468 8.61401 13.4515V85.9359C8.61796 88.1399 10.4062 89.9243 12.6102 89.9235H63.6612C64.1564 89.9266 64.6474 89.8323 65.1063 89.6459" stroke="#2D2E32" stroke-width="0.584" stroke-linecap="round" stroke-linejoin="round"/>
<rect x="10.4069" y="11.8977" width="55.4578" height="75.5906" rx="3.6427" fill="#88C2F9"/>
<rect x="13.6719" y="17.7468" width="49.5343" height="14.1535" rx="1.82208" fill="#88C2F9"/>
<circle cx="38.1358" cy="22.2438" r="1.46371" fill="#E4E8ED"/>
<path d="M34.0451 28.867C34.0451 26.6078 35.8766 24.7763 38.1358 24.7763C40.395 24.7763 42.2264 26.6078 42.2264 28.867H34.0451Z" fill="#E4E8ED"/>
<path d="M18.6254 38.2187H57.1411" stroke="white" stroke-width="1.05704"/>
<path d="M18.6254 42.0089H57.1411" stroke="white" stroke-width="1.05704"/>
<path d="M18.6254 66.4226H57.1411" stroke="white" stroke-width="1.05704"/>
<path d="M27.5721 70.0082H48.1943" stroke="white" stroke-width="1.05704"/>
<path d="M22.7175 93.4891C22.7175 93.4891 29.571 66.2552 50.9171 59.6034L59.5935 57.5331C59.5935 57.5331 60.9656 51.4049 60.4605 50.7611C59.9555 50.1172 58.9181 48.798 57.018 49.0842C55.1179 49.3703 50.206 49.4619 48.9483 43.4568C47.6907 37.4518 52.3379 23.1781 64.4153 21.0434C76.4927 18.9086 76.7745 27.7767 76.7745 27.7767L67.9036 48.333L69.28 64.916L69.4531 89.6188L22.7175 93.4891Z" fill="white"/>
<path d="M96.4824 72.4505C96.3393 72.492 94.5136 73.0229 93.7954 74.2877C93.5162 73.6967 92.9209 73.3199 92.2673 73.3205H70.8267C70.0411 73.3191 69.3589 73.8612 69.1827 74.6268L64.9604 92.7307C64.6743 92.6749 64.3881 92.6406 64.0905 92.6119L54.1264 90.1252C53.2407 89.903 52.3312 90.3906 52.026 91.2513C51.9596 91.4376 51.9267 91.6343 51.9287 91.8322C51.9287 92.7645 52.6498 93.5381 53.5799 93.6035L58.2915 93.9068C53.753 96.043 48.2315 100.112 43.6229 103.851C39.1388 96.8299 43.3468 89.8104 46.5117 86.0303C46.1039 81.8638 44.0379 72.1901 33.7289 72.4534C37.2802 67.8992 41.7085 63.9959 47.1956 61.3833C65.9906 82.2158 87.4927 65.1835 87.9491 64.8172C91.1646 66.9148 94.042 69.4897 96.4824 72.4534" fill="#2D2E32"/>
<path d="M94.5294 132.212V135.812H32.4598V130.713C34.8779 130.856 37.4219 130.283 39.7355 129.24C42.6643 127.907 45.194 125.835 47.3573 123.471C49.5822 121.025 50.8041 117.632 52.222 114.682C54.3511 110.239 57.1712 107.074 61.6467 105.734L61.3606 106.964C61.2442 107.466 61.3629 107.994 61.6829 108.397C62.0029 108.801 62.4895 109.036 63.0046 109.038H84.5524C84.1232 112.758 82.3132 133.075 94.5294 132.217" fill="#2D2E32"/>
<path d="M84.5624 37.5347C84.545 39.4595 84.2942 41.375 83.8155 43.2393C83.3694 45.0446 81.9071 46.4212 80.0783 46.7577C80.0425 45.4585 79.4902 44.3182 78.6475 43.6099C78.7244 42.51 78.7134 41.4058 78.6146 40.3076C78.5588 39.5822 78.4715 38.9054 78.3799 38.2973C78.3253 37.9512 78.2465 37.6094 78.1438 37.2743C77.8562 36.9653 77.5174 36.7083 77.1423 36.5146C75.8159 35.7677 73.0859 34.9736 68.0281 36.1411C67.2022 36.3302 66.4253 36.6904 65.7474 37.1985C65.7323 37.2078 65.7188 37.2194 65.7073 37.2328C65.2509 37.6535 64.67 38.1857 64.069 38.4619C63.4466 38.748 62.7971 38.7595 62.2519 38.0827C62.2376 38.0684 62.2305 38.0555 62.2176 38.0412C61.9314 37.6678 61.6581 37.1828 61.1531 37.0869C60.0886 36.8866 59.5706 37.9454 59.4361 38.8353C59.3188 39.658 59.5606 40.3835 59.914 41.0745C60.2099 41.6364 60.5967 42.1454 61.0586 42.5812C61.1772 42.6958 61.2858 42.8202 61.3834 42.9532C61.339 42.961 61.2954 42.973 61.2532 42.9889C61.1554 43.0218 61.0598 43.061 60.9671 43.1063C59.6793 43.6857 58.7622 45.138 58.7422 46.8378C58.7422 46.8907 56.5831 46.8593 56.3098 46.8378C55.2567 46.7405 54.2194 46.4372 53.4783 45.6431C51.375 43.3896 51.385 40.0458 52.2492 37.4303C53.0676 34.9478 54.1092 32.5241 55.4742 30.2906C58.4317 25.4573 63.0203 21.8918 68.8293 21.5713C70.2224 21.5012 71.6189 21.5828 72.9944 21.8145C73.6452 21.9171 74.2889 22.0604 74.9217 22.2438C80.8437 24.8278 84.6025 30.6855 84.5681 37.5347" fill="#88C2F9"/>
<path d="M81.1327 92.6348C80.4331 94.4305 78.7676 95.4578 77.4126 94.9241C76.0577 94.3904 75.5254 92.5132 76.2236 90.7176C76.9219 88.9219 78.5887 87.8932 79.9437 88.4283C81.2987 88.9634 81.8324 90.8406 81.1327 92.6363" fill="#88C2F9"/>
<path d="M84.7326 108.671C84.7326 108.671 80.9324 135.163 96.1332 132.227C111.251 129.303 116.973 67.8005 73.2132 58.9553" stroke="#2D2E32" stroke-width="1.05704"/>
<path d="M49.1428 83.1673C49.1428 83.1673 36.878 93.5106 43.4869 103.855" stroke="#2D2E32" stroke-width="1.05704"/>
<path d="M85.0087 101.313C84.7984 101.326 84.4979 101.185 84.2933 101.13C84.0339 101.061 83.7768 100.987 83.5221 100.909C82.0279 100.444 80.622 99.7323 79.3628 98.8031C79.0766 98.5985 78.5673 98.4668 78.2181 98.6013C77.8223 98.7465 77.5371 99.0959 77.4741 99.5127C77.3668 100.251 77.8876 100.974 78.4557 101.447C79.1296 102.011 79.8292 102.53 80.6462 102.868C81.4348 103.185 82.2484 103.435 83.0786 103.616C83.4549 103.704 83.8369 103.759 84.2103 103.855" stroke="#2D2E32" stroke-width="1.05704"/>
<path d="M89.7161 94.1458C89.8706 94.9614 89.9836 95.8084 89.9064 96.6368C89.842 97.3379 89.5902 98.1563 88.8104 98.3266C88.6621 98.3658 88.5083 98.3798 88.3554 98.3681C85.4194 98.195 82.9999 97.1805 80.237 95.1831C77.4741 93.1857 76.5012 97.7858 79.0251 98.6013" stroke="#2D2E32" stroke-width="1.05704"/>
<path d="M79.131 102.002C79.0632 101.946 78.9987 101.887 78.9378 101.823C77.5628 100.386 77.3139 103.274 78.7575 104.124L78.9435 104.234C79.0408 104.276 79.1453 104.325 79.2483 104.377C79.2969 104.39 79.3513 104.412 79.4014 104.426C80.7063 104.998 82.0956 105.365 83.4634 105.738C82.1099 105.296 80.7607 104.861 79.4014 104.426C79.2841 104.377 79.1725 104.329 79.0551 104.273C79.0191 104.258 78.9818 104.246 78.9435 104.239C78.894 104.216 78.8363 104.222 78.7919 104.253C78.7592 104.28 78.7353 104.316 78.7232 104.356C78.5014 104.888 78.6817 105.559 78.965 106.036C79.2626 106.539 79.7734 106.927 80.277 107.203C81.632 107.963 83.2073 108.412 84.7283 108.681C85.0104 108.74 85.2994 108.759 85.5867 108.737" stroke="#2D2E32" stroke-width="1.05704"/>
<path d="M97.8559 112.015C97.8559 112.015 93.1929 104.068 92.6735 97.1591C92.3559 92.8824 91.0996 91.9767 90.2011 91.9152" stroke="#2D2E32" stroke-width="1.05704"/>
<path d="M88.8103 98.3252L89.7175 94.1458L90.2011 91.9138L93.7867 75.3651C93.8943 74.866 93.7705 74.345 93.4499 73.9477C93.1292 73.5503 92.6461 73.3193 92.1355 73.3191H70.6936C69.9081 73.3183 69.2263 73.8601 69.0496 74.6254L64.8273 92.7308L61.7453 105.941L61.4592 107.179C61.3438 107.681 61.4631 108.208 61.7833 108.611C62.1035 109.014 62.5898 109.249 63.1046 109.251H84.651" stroke="#2D2E32" stroke-width="1.05704"/>
<path d="M62.2261 37.6063C62.2261 37.6063 63.3608 32.7945 69.7679 32.1564C76.175 31.5183 77.7804 36.3057 77.7804 36.3057L77.5786 36.7879C77.5786 36.7879 69.1555 33.4084 64.504 38.2316C64.504 38.2316 62.8285 38.9913 62.2261 37.6092" fill="#88C2F9"/>
<path d="M63.9545 92.6119L53.989 90.1223C53.3408 89.9618 52.6575 90.1807 52.2233 90.688C51.789 91.1953 51.6781 91.9041 51.9367 92.5198C52.1953 93.1355 52.779 93.5526 53.4453 93.5977L58.1569 93.9082" stroke="#2D2E32" stroke-width="1.05704"/>
<path d="M87.8203 64.8101C87.8203 64.8101 66.0535 82.4432 47.0611 61.3833" stroke="#2D2E32" stroke-width="1.05704"/>
<path d="M46.3786 86.0274C45.9708 81.8609 43.9062 72.1801 33.5887 72.4506" stroke="#2D2E32" stroke-width="1.05704"/>
<path d="M96.3521 72.4477C96.3521 72.4477 94.4077 72.9828 93.6622 74.2906" stroke="#2D2E32" stroke-width="1.05704"/>
<path d="M17.3591 136.027H109.776" stroke="#2D2E32" stroke-width="1.05704"/>
<path d="M78.6474 43.6157C79.5187 44.3482 80.0782 45.5444 80.0782 46.8979C80.0782 49.1443 78.5172 50.9614 76.5885 50.9614C76.3703 50.9602 76.1529 50.9348 75.9403 50.8856C78.1867 49.1686 78.6417 43.6157 78.6417 43.6157" fill="#88C2F9"/>
<path d="M65.9405 52.6826C68.1309 53.7727 70.6835 53.8711 72.9514 52.953C79.2727 50.3132 79.0309 42.5325 78.3741 38.3031C78.3218 37.96 78.2472 37.6206 78.1509 37.2872C77.4255 34.8692 75.5326 32.8989 73.0387 32.3395C68.2083 31.2478 63.7914 33.9864 61.9586 37.6735" stroke="#2D2E32" stroke-width="1.05704"/>
<path d="M59.0354 49.0842H55.477C52.9087 49.0842 50.8727 46.732 49.987 44.5242C48.7423 41.4194 49.5392 38.2416 50.6595 35.224C51.5981 32.6987 52.7914 30.2449 54.361 28.0486C57.875 23.1338 63.1805 20.3494 69.2785 20.8645C69.8194 20.9103 70.3578 20.9771 70.8939 21.0648C79.0824 22.3926 84.6038 29.239 84.5623 37.5305C84.5452 39.4567 84.2944 41.3736 83.8155 43.2394C83.3658 45.0432 81.9045 46.4184 80.0768 46.7577" stroke="#2D2E32" stroke-width="1.05704"/>
<path d="M61.3862 42.9532C61.2883 42.8202 61.1796 42.6953 61.0615 42.5798C60.5992 42.1449 60.2124 41.6362 59.9168 41.0746C59.5634 40.3835 59.3216 39.6581 59.4389 38.8354C59.5706 37.9511 60.0885 36.8866 61.1559 37.0869C61.661 37.1842 61.9299 37.6678 62.2204 38.0413C63.325 39.4721 64.8459 38.0341 65.7788 37.1699" stroke="#2D2E32" stroke-width="1.05704"/>
<path d="M78.6474 43.6157C79.5187 44.3482 80.0782 45.5444 80.0782 46.8979C80.0782 49.1443 78.5172 50.9614 76.5885 50.9614C76.3703 50.9602 76.1529 50.9348 75.9403 50.8856" stroke="#2D2E32" stroke-width="1.05704"/>
<path d="M71.1801 46.3728C71.9613 46.8979 73.8485 47.3286 73.4693 45.7719C73.0143 43.9276 72.402 39.9872 76.1521 39.6867C76.1521 39.6867 77.8032 39.7568 78.6188 40.3177" stroke="#2D2E32" stroke-width="1.05704"/>
<path d="M72.5922 49.4562C72.5922 49.4562 70.7036 50.4578 69.7678 48.4618" stroke="#2D2E32" stroke-width="1.05704"/>
<path d="M68.762 42.3809C68.689 43.0147 68.9365 43.5627 69.3157 43.6071C69.6949 43.6514 70.0612 43.1779 70.1356 42.5397C70.21 41.9016 69.9596 41.3593 69.5818 41.3149C69.2041 41.2706 68.835 41.7442 68.762 42.3809Z" fill="#2D2E32"/>
<path d="M74.9116 42.7543C74.8386 43.3867 75.0861 43.9362 75.4653 43.9805C75.8445 44.0249 76.2108 43.5513 76.2837 42.9131C76.3567 42.275 76.1092 41.7313 75.7314 41.6884C75.3537 41.6455 74.9846 42.1176 74.9116 42.7543Z" fill="#2D2E32"/>
<path d="M71.1801 40.0916C71.1801 40.0916 70.024 38.3088 67.4042 40" stroke="#2D2E32" stroke-width="1.05704"/>
<path d="M73.2118 52.8358V62.7254" stroke="#2D2E32" stroke-width="1.05704"/>
<path d="M34.1138 112.015C34.1138 112.015 38.1901 108.152 43.4841 103.86C48.0927 100.121 53.6199 96.0445 58.1598 93.9098C58.7407 93.6393 59.3044 93.3975 59.8524 93.1944C61.16 92.696 62.5634 92.5003 63.9574 92.622C64.2492 92.646 64.5396 92.6852 64.8273 92.7394" stroke="#2D2E32" stroke-width="1.05704"/>
<path d="M61.7454 105.941C57.2684 107.282 54.4483 110.447 52.3207 114.89C50.9056 117.84 49.6809 121.232 47.456 123.679C45.294 126.041 42.7644 128.114 39.8355 129.448C34.5216 131.866 27.9785 131.68 24.526 126.422C22.1909 122.856 21.2723 118.426 20.8059 114.26C20.0047 107.019 22.5343 86.6069 33.5887 72.4491C37.1399 67.8949 41.5697 63.9917 47.0554 61.379C50.9056 59.5505 55.2581 58.3543 60.1915 58.0152L61.5737 50.8856" stroke="#2D2E32" stroke-width="1.05704"/>
<path d="M94.628 132.453V136.027" stroke="#2D2E32" stroke-width="1.05704"/>
<path d="M32.5585 131.176V136.027" stroke="#2D2E32" stroke-width="1.05704"/>
<path d="M65.7116 46.8979C65.7252 47.9706 65.3443 49.0108 64.6413 49.8211C64.2471 50.0034 63.8179 50.0976 63.3836 50.0972C61.4564 50.0972 59.8939 48.2801 59.8939 46.0337C59.8801 44.9613 60.2616 43.9212 60.9656 43.112C61.3595 42.9288 61.7888 42.834 62.2233 42.8345C64.1505 42.8345 65.7116 44.653 65.7116 46.8979Z" fill="#88C2F9"/>
<ellipse cx="62.2261" cy="46.8979" rx="3.48543" ry="4.06347" stroke="#2D2E32" stroke-width="1.05704"/>
</svg>
